<svg width="27" height="36" viewBox="0 0 27 36" fill="none" xmlns="http://www.w3.org/2000/svg">
<path d="M26.7803 7.71975L19.2803 0.219727C19.1396 0.0791016 18.9492 0 18.75 0H2.99995C1.34543 0 0 1.34543 0 3.00002V33C0 34.6546 1.34543 36 3.00002 36H24C25.6546 36 27 34.6546 27 33V8.24998C27 8.05078 26.9209 7.86037 26.7803 7.71975ZM19.5 2.56057L24.4394 7.50002H21C20.1731 7.50002 19.5 6.82692 19.5 6.00005V2.56057ZM25.5 33C25.5 33.8269 24.8269 34.5 24 34.5H3.00002C2.17315 34.5 1.50005 33.8269 1.50005 33V3.00002C1.50005 2.17315 2.17315 1.50005 3.00002 1.50005H18V6.00005C18 7.65457 19.3454 9 21 9H25.5V33Z" fill="#828282"/>
<path d="M17.3239 22.0173C16.6296 21.4709 15.9697 20.9092 15.5303 20.4697C14.959 19.8984 14.4499 19.3447 14.0076 18.8174C14.6976 16.6853 15 15.586 15 15C15 12.5105 14.1006 12 12.75 12C11.7239 12 10.5 12.5331 10.5 15.0718C10.5 16.1909 11.1131 17.5496 12.3282 19.1287C12.0308 20.0361 11.6814 21.0828 11.2889 22.2627C11.0999 22.8289 10.8949 23.3532 10.678 23.8381C10.5015 23.9165 10.3301 23.9963 10.1646 24.0791C9.56841 24.3772 9.00225 24.6452 8.47709 24.8943C6.08203 26.0281 4.5 26.7781 4.5 28.259C4.5 29.3342 5.66824 30 6.75 30C8.14451 30 10.2502 28.1374 11.7883 24.9997C13.385 24.3698 15.3699 23.9032 16.9365 23.611C18.1919 24.5763 19.5784 25.5 20.25 25.5C22.1096 25.5 22.5 24.4247 22.5 23.5231C22.5 21.7499 20.4741 21.7499 19.5 21.7499C19.1975 21.75 18.386 21.8393 17.3239 22.0173ZM6.75 28.5C6.32152 28.5 6.03148 28.2978 5.99998 28.259C5.99998 27.7272 7.58566 26.9758 9.11939 26.2493C9.21677 26.2031 9.3157 26.157 9.41604 26.1094C8.28956 27.7427 7.17553 28.5 6.75 28.5ZM12 15.0718C12 13.5 12.4879 13.5 12.75 13.5C13.2803 13.5 13.5001 13.5 13.5001 15C13.5001 15.3164 13.2891 16.1074 12.9031 17.3423C12.3142 16.4355 12 15.6585 12 15.0718ZM12.575 23.1328C12.6219 23.0025 12.6673 22.8706 12.7112 22.7373C12.9895 21.9023 13.2401 21.1523 13.4634 20.477C13.7747 20.8198 14.1102 21.1707 14.4698 21.5303C14.6104 21.6709 14.9591 21.9873 15.4235 22.3835C14.499 22.5849 13.5154 22.8347 12.575 23.1328ZM21 23.5232C21 23.8601 21 24 20.3042 24.0044C20.0999 23.9605 19.6275 23.6822 19.0444 23.2852C19.2561 23.2618 19.4121 23.25 19.5 23.25C20.6082 23.25 20.9224 23.3584 21 23.5232Z" fill="#828282"/>
</svg>
